<?xml version="1.0" encoding="UTF-8" standalone="no"?>
<!-- Created with Inkscape (http://www.inkscape.org/) -->

<svg
   xmlns:dc="http://purl.org/dc/elements/1.1/"
   xmlns:cc="http://creativecommons.org/ns#"
   xmlns:rdf="http://www.w3.org/1999/02/22-rdf-syntax-ns#"
   xmlns:svg="http://www.w3.org/2000/svg"
   xmlns="http://www.w3.org/2000/svg"
   xmlns:sodipodi="http://sodipodi.sourceforge.net/DTD/sodipodi-0.dtd"
   xmlns:inkscape="http://www.inkscape.org/namespaces/inkscape"
   width="300.18292"
   height="240.00822"
   id="svg2"
   version="1.1"
   inkscape:version="0.48.4 r9939"
   sodipodi:docname="Neues Dokument 1">
  <defs
     id="defs4" />
  <sodipodi:namedview
     id="base"
     pagecolor="#ffffff"
     bordercolor="#666666"
     borderopacity="1.0"
     inkscape:pageopacity="0.0"
     inkscape:pageshadow="2"
     inkscape:zoom="0.70710678"
     inkscape:cx="376.08555"
     inkscape:cy="96.527316"
     inkscape:document-units="px"
     inkscape:current-layer="layer1"
     showgrid="true"
     fit-margin-top="0"
     fit-margin-left="0"
     fit-margin-right="0"
     fit-margin-bottom="0"
     inkscape:window-width="1366"
     inkscape:window-height="706"
     inkscape:window-x="-8"
     inkscape:window-y="-8"
     inkscape:window-maximized="1">
    <inkscape:grid
       type="xygrid"
       id="grid2985"
       empspacing="5"
       visible="true"
       enabled="true"
       snapvisiblegridlinesonly="true"
       originx="-190.32939px"
       originy="-600px" />
  </sodipodi:namedview>
  <metadata
     id="metadata7">
    <rdf:RDF>
      <cc:Work
         rdf:about="">
        <dc:format>image/svg+xml</dc:format>
        <dc:type
           rdf:resource="http://purl.org/dc/dcmitype/StillImage" />
        <dc:title></dc:title>
      </cc:Work>
    </rdf:RDF>
  </metadata>
  <g
     inkscape:label="Ebene 1"
     inkscape:groupmode="layer"
     id="layer1"
     transform="translate(-190.32939,-212.35395)">
    <g
       id="g3903">
      <path
         sodipodi:nodetypes="ccsc"
         inkscape:connector-curvature="0"
         id="path2987"
         d="m 280,452.36218 c 40,0 80,0 120,0 0,-70 10,-140 -60,-140 -70,0 -60,70 -60,140 z"
         style="fill:#ffffff;stroke:none" />
      <path
         sodipodi:nodetypes="sssss"
         inkscape:connector-curvature="0"
         id="path2989"
         d="m 340,312.36218 c 25,0 40,-15 40,-40 0,-25 -15,-40 -40,-40 -25,0 -40,15 -40,40 0,25 15,40 40,40 z"
         style="fill:#ffffff;stroke:none" />
      <path
         sodipodi:nodetypes="ccsc"
         inkscape:connector-curvature="0"
         id="path2987-8"
         d="m 190.82322,432.42024 c 40,0 80,0 120,0 0,-70 10,-140 -60,-140 -70,0 -60,70 -60,140 z"
         style="fill:#ffffff;stroke:none" />
      <path
         sodipodi:nodetypes="sssss"
         inkscape:connector-curvature="0"
         id="path2989-2"
         d="m 250.00562,292.35395 c 25,0 40,-15 40,-40 0,-25 -15,-40 -40,-40 -25,0 -40,15 -40,40 0,25 15,40 40,40 z"
         style="fill:#ffffff;stroke:none" />
      <path
         sodipodi:nodetypes="ccsc"
         inkscape:connector-curvature="0"
         id="path2987-8-5"
         d="m 370.01849,432.46587 c 40,0 80,0 120,0 0,-70 10,-140 -60,-140 -70,0 -60,70 -60,140 z"
         style="fill:#ffffff;stroke:none" />
      <path
         sodipodi:nodetypes="sssss"
         inkscape:connector-curvature="0"
         id="path2989-2-1"
         d="m 430.01849,292.35539 c 25,0 40,-15 40,-40 0,-25 -15,-40 -40,-40 -25,0 -40,15 -40,40 0,25 15,40 40,40 z"
         style="fill:#ffffff;stroke:none" />
    </g>
  </g>
</svg>
