<?xml version="1.0" encoding="UTF-8" standalone="no"?>
<!-- Created with Inkscape (http://www.inkscape.org/) -->

<svg
   xmlns:dc="http://purl.org/dc/elements/1.1/"
   xmlns:cc="http://creativecommons.org/ns#"
   xmlns:rdf="http://www.w3.org/1999/02/22-rdf-syntax-ns#"
   xmlns:svg="http://www.w3.org/2000/svg"
   xmlns="http://www.w3.org/2000/svg"
   xmlns:sodipodi="http://sodipodi.sourceforge.net/DTD/sodipodi-0.dtd"
   xmlns:inkscape="http://www.inkscape.org/namespaces/inkscape"
   width="342.03961"
   height="348.53244"
   id="svg2"
   version="1.1"
   inkscape:version="0.48.4 r9939"
   sodipodi:docname="Neues Dokument 1">
  <defs
     id="defs4" />
  <sodipodi:namedview
     id="base"
     pagecolor="#ffffff"
     bordercolor="#666666"
     borderopacity="1.0"
     inkscape:pageopacity="0.0"
     inkscape:pageshadow="2"
     inkscape:zoom="0.98994949"
     inkscape:cx="197.68242"
     inkscape:cy="187.67896"
     inkscape:document-units="px"
     inkscape:current-layer="layer1"
     showgrid="true"
     fit-margin-top="8"
     fit-margin-left="3"
     fit-margin-right="0"
     fit-margin-bottom="0"
     inkscape:window-width="1366"
     inkscape:window-height="706"
     inkscape:window-x="-8"
     inkscape:window-y="-8"
     inkscape:window-maximized="1">
    <inkscape:grid
       type="xygrid"
       id="grid2985"
       empspacing="5"
       visible="true"
       enabled="true"
       snapvisiblegridlinesonly="true"
       originx="-83.3125px"
       originy="-503.04849px" />
  </sodipodi:namedview>
  <metadata
     id="metadata7">
    <rdf:RDF>
      <cc:Work
         rdf:about="">
        <dc:format>image/svg+xml</dc:format>
        <dc:type
           rdf:resource="http://purl.org/dc/dcmitype/StillImage" />
        <dc:title></dc:title>
      </cc:Work>
    </rdf:RDF>
  </metadata>
  <g
     inkscape:label="Ebene 1"
     inkscape:groupmode="layer"
     id="layer1"
     transform="translate(-83.3125,-200.78125)">
    <path
       style="fill:#ffffff;stroke:#ffffff;stroke-width:18.72715377999999800;stroke-linecap:butt;stroke-linejoin:miter;stroke-opacity:1"
       d="m 95.209688,423.04017 36.305842,-108.91753 36.30585,54.45877 36.30584,-54.45877 18.15293,18.15292 36.30584,-90.76461 18.15292,90.76461 18.15293,-18.15292"
       id="path2991"
       inkscape:connector-curvature="0" />
    <path
       style="fill:#ffffff;stroke:none"
       d="m 201.51651,410.4015 -2.34066,9.209 -11.54061,3.13594 -6.57012,-6.86834 -13.29385,7.81725 2.62985,9.19996 -8.25105,8.33238 -9.12766,-2.70214 -7.81725,13.35711 6.94063,6.57915 -3.14497,11.45929 -9.27226,2.34065 -0.0723,15.26398 9.34456,2.41296 3.14498,11.24239 -6.86834,6.65144 7.74495,13.35712 9.05536,-2.70214 8.32336,8.54927 -2.77446,9.12766 13.58305,7.81726 6.57011,-7.01294 11.54062,3.21728 1.97013,9.12766 15.70681,-0.0723 2.18702,-9.2813 11.39603,-3.13594 6.72374,7.08524 13.21252,-7.67266 -2.48526,-9.34455 8.33239,-8.40468 9.12766,2.78348 7.66362,-13.36615 -6.8593,-6.72374 2.99134,-11.3147 9.27226,-2.26836 0,-15.48087 -9.34456,-2.41296 -2.99134,-11.17009 6.9316,-6.86834 -7.66362,-13.22156 -9.35359,2.62986 -8.17876,-8.32335 2.55756,-9.19996 -13.29386,-7.67266 -6.6424,6.94064 -11.46833,-3.13594 -2.25932,-9.2813 -15.33628,0 z m 6.05498,42.51141 c 0.2205,-0.006 0.43788,0 0.65972,0 14.1978,0 25.7111,11.50426 25.7111,25.70206 0,14.19779 -11.5133,25.71109 -25.7111,25.71109 -14.19778,0 -25.70205,-11.5133 -25.70205,-25.71109 0,-13.97596 11.15119,-25.35013 25.04233,-25.70206 z"
       id="path3774"
       inkscape:connector-curvature="0" />
    <path
       style="fill:#ffffff;stroke:none"
       d="m 370.47032,247.69786 54.88179,13.71095 -5.14161,20.58067 -13.72044,-3.42774 -5.14161,20.58067 6.86022,1.71387 -29.13576,116.62378 -13.72044,-3.42773 -6.85548,27.44089 -6.86022,-1.71387 -23.1396,78.03562 -0.85931,-11.14726 17.13869,-68.60223 -6.86023,-1.71387 6.85548,-27.44089 c 0,0 0,0 -13.72045,-3.42774 35.99599,-114.90991 35.99599,-114.90991 35.99599,-114.90991 l 6.86022,1.71387 5.1416,-20.58067 -13.72044,-3.42774 z"
       id="path3794"
       inkscape:connector-curvature="0"
       sodipodi:nodetypes="ccccccccccccccccccccc" />
  </g>
</svg>
