<?xml version="1.0" encoding="UTF-8" standalone="no"?>
<!-- Created with Inkscape (http://www.inkscape.org/) -->

<svg
   xmlns:dc="http://purl.org/dc/elements/1.1/"
   xmlns:cc="http://creativecommons.org/ns#"
   xmlns:rdf="http://www.w3.org/1999/02/22-rdf-syntax-ns#"
   xmlns:svg="http://www.w3.org/2000/svg"
   xmlns="http://www.w3.org/2000/svg"
   xmlns:sodipodi="http://sodipodi.sourceforge.net/DTD/sodipodi-0.dtd"
   xmlns:inkscape="http://www.inkscape.org/namespaces/inkscape"
   width="150.40625"
   height="185.00755"
   id="svg2"
   version="1.1"
   inkscape:version="0.48.4 r9939"
   sodipodi:docname="Neues Dokument 1">
  <defs
     id="defs4" />
  <sodipodi:namedview
     id="base"
     pagecolor="#ffffff"
     bordercolor="#666666"
     borderopacity="1.0"
     inkscape:pageopacity="0.0"
     inkscape:pageshadow="2"
     inkscape:zoom="1.8654361"
     inkscape:cx="176.75163"
     inkscape:cy="101.62086"
     inkscape:document-units="px"
     inkscape:current-layer="layer1"
     showgrid="true"
     inkscape:window-width="1366"
     inkscape:window-height="706"
     inkscape:window-x="-8"
     inkscape:window-y="-8"
     inkscape:window-maximized="1"
     fit-margin-top="0"
     fit-margin-left="0"
     fit-margin-right="0"
     fit-margin-bottom="0">
    <inkscape:grid
       type="xygrid"
       id="grid2985"
       empspacing="5"
       visible="true"
       enabled="true"
       snapvisiblegridlinesonly="true"
       originx="-131.8198px"
       originy="-737.66485px" />
  </sodipodi:namedview>
  <metadata
     id="metadata7">
    <rdf:RDF>
      <cc:Work
         rdf:about="">
        <dc:format>image/svg+xml</dc:format>
        <dc:type
           rdf:resource="http://purl.org/dc/dcmitype/StillImage" />
        <dc:title></dc:title>
      </cc:Work>
    </rdf:RDF>
  </metadata>
  <g
     inkscape:label="Ebene 1"
     inkscape:groupmode="layer"
     id="layer1"
     transform="translate(-131.8198,-129.68977)">
    <path
       style="fill:#ffffff;fill-opacity:1;fill-rule:nonzero;stroke:none"
       d="m 166.3198,129.69733 c -2.5274,0.25514 -4.5,2.40312 -4.5,5 l 0,10 -20,0 c -5.54,0 -10,4.46 -10,10 l 0,25.03125 150.40625,0 0,-25.03125 c 0,-5.54 -4.46,-10 -10,-10 l -20.40625,0 0,-10 c 0,-2.77 -2.23,-5 -5,-5 -2.77,0 -5,2.23 -5,5 l 0,10 -30,0 0,-10 c 0,-2.77 -2.23,-5 -5,-5 -2.77,0 -5,2.23 -5,5 l 0,10 -30,0 0,-10 c 0,-2.77 -2.23,-5 -5,-5 -0.17312,0 -0.33151,-0.017 -0.5,0 z m -34.5,55.03125 0,119.96875 c 0,5.54 4.46,10 10,10 l 130.40625,0 c 5.54,0 10,-4.46 10,-10 l 0,-119.96875 -150.40625,0 z m 13,9.96875 33.5,0 0,47 -36.5,0 0,-44 c 0,-1.662 1.338,-3 3,-3 z m 43.5,0 37.40625,0 0,47 -37.40625,0 0,-47 z m 47.40625,0 33.09375,0 c 1.662,0 3,1.338 3,3 l 0,44 -36.09375,0 0,-47 z m -93.90625,57 36.5,0 0,53 -33.5,0 c -1.662,0 -3,-1.338 -3,-3 l 0,-50 z m 46.5,0 37.40625,0 0,53 -37.40625,0 0,-53 z m 47.40625,0 36.09375,0 0,50 c 0,1.662 -1.338,3 -3,3 l -33.09375,0 0,-53 z"
       id="rect2996"
       inkscape:connector-curvature="0" />
  </g>
</svg>
