<?xml version="1.0" encoding="UTF-8" standalone="no"?>
<!-- Created with Inkscape (http://www.inkscape.org/) -->

<svg
   xmlns:osb="http://www.openswatchbook.org/uri/2009/osb"
   xmlns:dc="http://purl.org/dc/elements/1.1/"
   xmlns:cc="http://creativecommons.org/ns#"
   xmlns:rdf="http://www.w3.org/1999/02/22-rdf-syntax-ns#"
   xmlns:svg="http://www.w3.org/2000/svg"
   xmlns="http://www.w3.org/2000/svg"
   xmlns:sodipodi="http://sodipodi.sourceforge.net/DTD/sodipodi-0.dtd"
   xmlns:inkscape="http://www.inkscape.org/namespaces/inkscape"
   width="692.49451"
   height="617.10333"
   id="svg2"
   version="1.1"
   inkscape:version="0.48.4 r9939"
   sodipodi:docname="Kurse.svg">
  <defs
     id="defs4">
    <linearGradient
       id="linearGradient5225"
       osb:paint="gradient">
      <stop
         style="stop-color:#000000;stop-opacity:1;"
         offset="0"
         id="stop5227" />
      <stop
         style="stop-color:#000000;stop-opacity:0;"
         offset="1"
         id="stop5229" />
    </linearGradient>
  </defs>
  <sodipodi:namedview
     id="base"
     pagecolor="#ffffff"
     bordercolor="#666666"
     borderopacity="1.0"
     inkscape:pageopacity="0.0"
     inkscape:pageshadow="2"
     inkscape:zoom="0.7"
     inkscape:cx="344.08868"
     inkscape:cy="215.95275"
     inkscape:document-units="px"
     inkscape:current-layer="layer2"
     showgrid="false"
     inkscape:window-width="1366"
     inkscape:window-height="706"
     inkscape:window-x="-8"
     inkscape:window-y="-8"
     inkscape:window-maximized="1"
     fit-margin-top="0"
     fit-margin-left="0"
     fit-margin-right="0"
     fit-margin-bottom="0" />
  <metadata
     id="metadata7">
    <rdf:RDF>
      <cc:Work
         rdf:about="">
        <dc:format>image/svg+xml</dc:format>
        <dc:type
           rdf:resource="http://purl.org/dc/dcmitype/StillImage" />
        <dc:title />
      </cc:Work>
    </rdf:RDF>
  </metadata>
  <g
     inkscape:groupmode="layer"
     id="layer2"
     inkscape:label="Neu"
     transform="translate(-24.823192,-143.51081)" />
  <g
     inkscape:label="Ebene 1"
     inkscape:groupmode="layer"
     id="layer1"
     transform="translate(-24.823192,-143.51081)">
    <path
       style="fill:#ffffff;stroke:none"
       d="m 313.74624,143.51081 -3.10968,52.98712 c 0,0 11.04843,1.77438 15.96682,7.93637 1.23316,14.68798 -0.0993,95.68888 -7.85714,147.43872 -3.48801,0.5827 -5,3.78064 -5,3.78064 -1.65877,5.59854 1.93982,6.88322 0,10.71429 0,0 -8.02771,5.9586 -9.36493,8.48476 -19.34892,27.05453 0.80654,39.22081 -8.3189,46.47191 -25.66862,18.77745 19.82667,80.04332 19.82667,80.04332 l 7.69127,-0.20919 4.32905,3.82395 6.59444,-3.02301 6.68111,-1.0176 5.41098,-6.63034 c 0,0 -47.47513,-55.59962 -29.99255,-70.08666 17.20773,-14.25928 -8.12782,-27.09396 2.93637,-47.93636 3.29022,-4.35382 -2.50057,-4.79221 -0.79351,-9.29315 1.07581,-2.83654 4.13205,-4.62403 5,-7.60461 0.59912,-2.0574 -1.32794,-4.40521 -1.51523,-6.68111 6.83196,-50.45343 9.59276,-131.34326 8.65809,-147.0562 2.73317,-3.06972 12.14285,-2.14285 12.14285,-2.14285 0,0 19.47175,1.84065 30,5 -25.85274,23.34491 -36.37846,52.75009 -41.42857,67.85714 0.11295,11.67387 13.74195,20.36664 17.14286,22.85714 80.23964,42.64941 174.82411,74.14318 230,44.28572 0,0 8.50196,-64.68424 -15,-97.14286 50.39934,8.14473 153.57143,27.85714 153.57143,27.85714 L 573.03195,189.93938 z"
       id="path2998"
       inkscape:connector-curvature="0"
       sodipodi:nodetypes="ccccccccccccccccssccccccccccc" />
    <path
       style="fill:#ffffff;stroke:none"
       d="m 24.823192,448.20428 30.73579,43.27373 c 0,0 9.72775,-5.53055 17.42026,-3.80258 -0.08766,61.89285 51.059968,64.14981 86.144128,119.91289 -2.35582,2.6374 -1.53372,6.0779 -1.53372,6.0779 2.20999,5.40473 5.82073,4.1546 6.70538,8.35667 0,0 -1.87164,3.64665 -1.33366,6.45383 1.8404,33.21055 0.98554,42.16875 -1.5939,53.5353 -8.26879,30.7099 -39.37595,75.60932 -39.37595,75.60932 l 7.88286,-0.18279 4.43524,3.17558 6.27056,-1.58096 4.57412,-4.97496 4.32759,3.59529 c 0,0 22.06362,-40.4519 26.63275,-62.69236 4.4973,-21.8908 4.22292,-39.9579 -0.19142,-63.13839 -0.15855,-5.45493 -5.8502,-7.86065 -7.33562,-12.43952 -0.93612,-2.88564 0.32893,-6.19251 -0.85946,-9.06042 -0.82031,-1.97964 -3.79266,-2.6048 -5.36309,-4.26268 -24.81833,-47.91282 -83.288727,-64.15966 -85.280008,-120.11581 0.2106,-4.10476 8.1298,-9.27075 8.1298,-9.27075 0,0 16.339038,-10.75048 26.527838,-14.87528 -5.55391,34.38754 4.63929,63.90964 10.15495,78.853 7.39402,9.03441 23.46427,7.28487 27.67547,7.09893 89.27484,-16.95215 182.75641,-51.5827 207.10528,-109.40121 0,0 -33.85052,-55.77164 -72.49475,-66.37956 44.40649,-25.18915 137.21284,-74.38308 137.21284,-74.38308 l -165.28538,24.55999 z"
       id="path2998-1"
       inkscape:connector-curvature="0"
       sodipodi:nodetypes="ccccccccccccccccssccccccccccc" />
    <path
       style="fill:#ffffff;stroke:none"
       d="m 632.65488,479.23778 77.92758,147.81654 c 0,0 -77.16035,-71.26951 -115.63782,-104.82415 2.79279,39.9763 -38.61599,90.39104 -38.61599,90.39104 -62.61991,-3.82038 -126.26287,-80.55141 -171.83206,-159.16961 -1.5705,-3.91183 -8.54487,-18.4951 -2.47002,-28.46447 12.27241,-10.15454 36.75083,-29.55202 71.03655,-35.70333 -7.26716,-8.24708 -22.82328,-20.1022 -22.82328,-20.1022 0,0 -7.4977,-5.76069 -11.44045,-4.59961 -70.36949,20.97524 -35.47093,127.46696 -67.93979,166.68427 -1.04403,2.03096 -0.64923,5.04258 -2.24535,6.47236 -2.3123,2.07135 -5.85152,1.9732 -8.26412,3.8124 -3.82824,2.9184 -4.21263,9.08561 -9.30703,11.04228 -20.40927,11.84413 -35.93675,17.37384 -58.08132,20.38229 -22.49829,3.0565 -52.97515,35.63927 -52.97515,35.63927 l 1.95868,-5.27425 -6.20932,-2.66778 -3.56896,-5.39277 1.52701,-5.23679 -2.78385,-7.37721 c 0,0 37.66912,-25.5232 69.38421,-27.89463 11.57925,-1.33162 18.88625,-2.77834 49.6119,-15.51654 2.47046,-1.43755 6.53122,-0.87962 6.53122,-0.87962 3.67174,-2.22672 1.29606,-5.21945 5.66351,-9.09509 0,0 2.97389,-1.91542 6.24279,-0.56633 33.94012,-39.82836 -7.11221,-140.02652 67.4621,-167.43234 -0.91791,-7.83057 -9.35871,-15.17693 -9.35871,-15.17693 l 30.6484,-43.33568 z"
       id="path2998-1-7"
       inkscape:connector-curvature="0"
       sodipodi:nodetypes="ccccccccccssccccccccccccccccc" />
  </g>
</svg>
