<?xml version="1.0" encoding="UTF-8" standalone="no"?>
<!-- Created with Inkscape (http://www.inkscape.org/) -->

<svg
   xmlns:dc="http://purl.org/dc/elements/1.1/"
   xmlns:cc="http://creativecommons.org/ns#"
   xmlns:rdf="http://www.w3.org/1999/02/22-rdf-syntax-ns#"
   xmlns:svg="http://www.w3.org/2000/svg"
   xmlns="http://www.w3.org/2000/svg"
   xmlns:sodipodi="http://sodipodi.sourceforge.net/DTD/sodipodi-0.dtd"
   xmlns:inkscape="http://www.inkscape.org/namespaces/inkscape"
   width="250"
   height="215"
   id="svg3000"
   version="1.1"
   inkscape:version="0.48.4 r9939"
   sodipodi:docname="Neues Dokument 2">
  <defs
     id="defs3" />
  <sodipodi:namedview
     inkscape:document-units="mm"
     id="base"
     pagecolor="#ffffff"
     bordercolor="#666666"
     borderopacity="1.0"
     inkscape:pageopacity="0.0"
     inkscape:pageshadow="2"
     inkscape:zoom="1.4"
     inkscape:cx="81.361989"
     inkscape:cy="83.974905"
     inkscape:current-layer="layer1"
     showgrid="false"
     units="mm"
     fit-margin-top="0"
     fit-margin-left="0"
     fit-margin-right="0"
     fit-margin-bottom="0"
     inkscape:window-width="1366"
     inkscape:window-height="706"
     inkscape:window-x="-8"
     inkscape:window-y="-8"
     inkscape:window-maximized="1">
    <inkscape:grid
       type="xygrid"
       id="grid3019"
       empspacing="5"
       visible="true"
       enabled="true"
       snapvisiblegridlinesonly="true"
       originx="-265px"
       originy="-634.98718px" />
  </sodipodi:namedview>
  <metadata
     id="metadata4">
    <rdf:RDF>
      <cc:Work
         rdf:about="">
        <dc:format>image/svg+xml</dc:format>
        <dc:type
           rdf:resource="http://purl.org/dc/dcmitype/StillImage" />
        <dc:title></dc:title>
      </cc:Work>
    </rdf:RDF>
  </metadata>
  <g
     inkscape:label="Layer 1"
     inkscape:groupmode="layer"
     id="layer1"
     transform="translate(-265,-202.375)">
    <path
       style="fill:#ffffff;stroke:none"
       d="m 392.25,202.375 -122.25,35 0,25 10,0 0,5 5,0 0,120 -5,0 0,10 -5,0 0,10 -10,0 0,10 250,0 0,-10 -10,0 0,-10 -5,0 0,-10 -5,0 0,-120 5,0 0,-5 10,0 0,-25 -117.75,-35 z m -82.25,60 35,0 0,5 5,0 0,120 -5,0 0,10 -35,0 0,-10 -5,0 0,-120 5,0 0,-5 z m 65,0 35,0 0,5 5,0 0,120 -5,0 0,10 -35,0 0,-10 -5,0 0,-120 5,0 0,-5 z m 65,0 30,0 0,5 5,0 0,120 -5,0 0,10 -30,0 0,-10 -5,0 0,-120 5,0 0,-5 z"
       id="path3017"
       inkscape:connector-curvature="0" />
  </g>
</svg>
