<?xml version="1.0" encoding="UTF-8" standalone="no"?>
<!-- Created with Inkscape (http://www.inkscape.org/) -->

<svg
   xmlns:dc="http://purl.org/dc/elements/1.1/"
   xmlns:cc="http://creativecommons.org/ns#"
   xmlns:rdf="http://www.w3.org/1999/02/22-rdf-syntax-ns#"
   xmlns:svg="http://www.w3.org/2000/svg"
   xmlns="http://www.w3.org/2000/svg"
   xmlns:sodipodi="http://sodipodi.sourceforge.net/DTD/sodipodi-0.dtd"
   xmlns:inkscape="http://www.inkscape.org/namespaces/inkscape"
   width="320"
   height="160.00032"
   id="svg2"
   version="1.1"
   inkscape:version="0.48.4 r9939"
   sodipodi:docname="Neues Dokument 1">
  <defs
     id="defs4" />
  <sodipodi:namedview
     id="base"
     pagecolor="#ffffff"
     bordercolor="#666666"
     borderopacity="1.0"
     inkscape:pageopacity="0.0"
     inkscape:pageshadow="2"
     inkscape:zoom="1.4466894"
     inkscape:cx="74.545283"
     inkscape:cy="70.689844"
     inkscape:document-units="px"
     inkscape:current-layer="layer1"
     showgrid="true"
     fit-margin-top="0"
     fit-margin-left="0"
     fit-margin-right="0"
     fit-margin-bottom="0"
     inkscape:window-width="1366"
     inkscape:window-height="706"
     inkscape:window-x="-8"
     inkscape:window-y="-8"
     inkscape:window-maximized="1">
    <inkscape:grid
       type="xygrid"
       id="grid2985"
       empspacing="5"
       visible="true"
       enabled="true"
       snapvisiblegridlinesonly="true"
       originx="-80px"
       originy="-599.98718px" />
  </sodipodi:namedview>
  <metadata
     id="metadata7">
    <rdf:RDF>
      <cc:Work
         rdf:about="">
        <dc:format>image/svg+xml</dc:format>
        <dc:type
           rdf:resource="http://purl.org/dc/dcmitype/StillImage" />
        <dc:title></dc:title>
      </cc:Work>
    </rdf:RDF>
  </metadata>
  <g
     inkscape:label="Ebene 1"
     inkscape:groupmode="layer"
     id="layer1"
     transform="translate(-80,-292.37468)">
    <path
       style="fill:#ffffff;stroke:none"
       d="m 240,292.375 c -5,-0.0128 -110,-0.0128 -160,80 50,79.98718 155,80 160,80 5,0 110,0 160,-80 -50,-80 -155.00002,-79.98718 -160,-80 z m 0,5 c 2.12513,-0.005 22.3382,0.93134 47.15625,7.34375 C 300.46065,319.90746 305,343.88189 305,372.375 c 0,28.49972 -4.53217,52.4681 -17.84375,67.65625 C 262.34023,446.44245 242.125,447.375 240,447.375 c -2.125,0 -22.34023,-0.93255 -47.15625,-7.34375 C 179.53217,424.8431 175,400.87472 175,372.375 c 0,-28.4832 4.51884,-52.46671 17.8125,-67.65625 24.82944,-6.41652 45.06166,-7.3383 47.1875,-7.34375 z m 51.75,8.5625 c 32.72503,9.17432 71.77837,27.99665 88.25,66.4375 -16.47163,38.42677 -55.52497,57.23267 -88.25,66.40625 C 319.99731,420.67564 320,377.03021 320,372.375 c 0,-4.65521 -0.003,-48.33189 -28.25,-66.4375 z m -103.5625,0.0312 C 159.99835,324.09698 160,367.72298 160,372.375 c 0,4.65521 0.003,48.30064 28.25,66.40625 -32.72503,-9.17358 -71.77837,-27.97948 -88.25,-66.40625 16.46133,-38.41681 55.475,-57.22831 88.1875,-66.40625 z M 240,332.375 c -20,0 -35,15 -35,35 0,20 15,35 35,35 20,0 35,-15 35,-35 0,-20 -15,-35 -35,-35 z"
       id="path2991"
       inkscape:connector-curvature="0" />
  </g>
</svg>
