<?xml version="1.0" encoding="UTF-8" standalone="no"?>
<!-- Created with Inkscape (http://www.inkscape.org/) -->

<svg
   xmlns:dc="http://purl.org/dc/elements/1.1/"
   xmlns:cc="http://creativecommons.org/ns#"
   xmlns:rdf="http://www.w3.org/1999/02/22-rdf-syntax-ns#"
   xmlns:svg="http://www.w3.org/2000/svg"
   xmlns="http://www.w3.org/2000/svg"
   xmlns:sodipodi="http://sodipodi.sourceforge.net/DTD/sodipodi-0.dtd"
   xmlns:inkscape="http://www.inkscape.org/namespaces/inkscape"
   width="320.91882"
   height="289.18518"
   id="svg2"
   version="1.1"
   inkscape:version="0.48.4 r9939"
   sodipodi:docname="Art des Raums.png">
  <defs
     id="defs4">
    <inkscape:perspective
       sodipodi:type="inkscape:persp3d"
       inkscape:vp_x="0 : 526.18109 : 1"
       inkscape:vp_y="6.1230317e-014 : 1000 : 0"
       inkscape:vp_z="744.09448 : 526.18109 : 1"
       inkscape:persp3d-origin="372.04724 : 350.78739 : 1"
       id="perspective3003" />
  </defs>
  <sodipodi:namedview
     id="base"
     pagecolor="#ffffff"
     bordercolor="#666666"
     borderopacity="1.0"
     inkscape:pageopacity="0.0"
     inkscape:pageshadow="2"
     inkscape:zoom="1.4142136"
     inkscape:cx="233.90369"
     inkscape:cy="178.05523"
     inkscape:document-units="px"
     inkscape:current-layer="layer1"
     showgrid="true"
     fit-margin-top="0"
     fit-margin-left="0"
     fit-margin-right="0"
     fit-margin-bottom="0"
     inkscape:window-width="1366"
     inkscape:window-height="706"
     inkscape:window-x="-8"
     inkscape:window-y="-8"
     inkscape:window-maximized="1">
    <inkscape:grid
       type="xygrid"
       id="grid2985"
       empspacing="5"
       visible="true"
       enabled="true"
       snapvisiblegridlinesonly="true"
       originx="-140px"
       originy="-550px" />
  </sodipodi:namedview>
  <metadata
     id="metadata7">
    <rdf:RDF>
      <cc:Work
         rdf:about="">
        <dc:format>image/svg+xml</dc:format>
        <dc:type
           rdf:resource="http://purl.org/dc/dcmitype/StillImage" />
        <dc:title></dc:title>
      </cc:Work>
    </rdf:RDF>
  </metadata>
  <g
     inkscape:label="Ebene 1"
     inkscape:groupmode="layer"
     id="layer1"
     transform="translate(-140,-213.177)">
    <path
       inkscape:connector-curvature="0"
       style="fill:#ffffff;stroke:none"
       d="m 201.10657,213.38005 0,20 0,40 100,0 0,-60 -100,0 z m 0,65 0,35 0,40 100,0 0,-40 0,-35 -100,0 z"
       id="path3837-1-7-4" />
    <path
       style="fill:#ffffff;stroke:none"
       d="m 140,273.08211 0,20 0,40 100,0 0,-60 -100,0 z m 0,65 0,35 0,40 100,0 0,-40 0,-35 -100,0 z"
       id="path3837"
       inkscape:connector-curvature="0" />
    <path
       inkscape:connector-curvature="0"
       style="fill:#ffffff;stroke:none"
       d="m 311.30962,213.177 0,20 0,40 100,0 0,-60 -100,0 z m 0,65 0,35 0,40 100,0 0,-40 0,-35 -100,0 z"
       id="path3837-1-7-4-0" />
    <path
       inkscape:connector-curvature="0"
       style="fill:#ffffff;stroke:none"
       d="m 249.50258,273.5831 0,20 0,40 100,0 0,-60 -100,0 z m 0,65 0,35 0,40 100,0 0,-40 0,-35 -100,0 z"
       id="path3837-1" />
    <path
       inkscape:connector-curvature="0"
       style="fill:#ffffff;stroke:none"
       d="m 360.91883,273.78615 0,20 0,40 100,0 0,-60 -100,0 z m 0,65 0,35 0,40 100,0 0,-40 0,-35 -100,0 z"
       id="path3837-1-7" />
    <path
       style="fill:#ffffff;stroke:none"
       d="m 220,452.36218 150,0 20,50 -190,0 z"
       id="path3917"
       inkscape:connector-curvature="0" />
    <path
       style="fill:#ffffff;stroke:none"
       d="m 290,472.36218 c 0,0 12,-23.99999 20,-35 -5,0 -5,-3 -5,-5 0,-3 3,-5 8,-5 3,0 7,3 7,5 0,2 0,5 -5,5 -9.46962,8.45206 -15,35 -15,35 z"
       id="path3919"
       inkscape:connector-curvature="0"
       sodipodi:nodetypes="ccsssccc" />
  </g>
</svg>
