<?xml version="1.0" encoding="UTF-8" standalone="no"?>
<!-- Created with Inkscape (http://www.inkscape.org/) -->

<svg
   xmlns:dc="http://purl.org/dc/elements/1.1/"
   xmlns:cc="http://creativecommons.org/ns#"
   xmlns:rdf="http://www.w3.org/1999/02/22-rdf-syntax-ns#"
   xmlns:svg="http://www.w3.org/2000/svg"
   xmlns="http://www.w3.org/2000/svg"
   xmlns:sodipodi="http://sodipodi.sourceforge.net/DTD/sodipodi-0.dtd"
   xmlns:inkscape="http://www.inkscape.org/namespaces/inkscape"
   width="320.34949"
   height="267.50308"
   id="svg2"
   version="1.1"
   inkscape:version="0.48.4 r9939"
   sodipodi:docname="Neues Dokument 1">
  <defs
     id="defs4" />
  <sodipodi:namedview
     id="base"
     pagecolor="#ffffff"
     bordercolor="#666666"
     borderopacity="1.0"
     inkscape:pageopacity="0.0"
     inkscape:pageshadow="2"
     inkscape:zoom="1"
     inkscape:cx="158.44719"
     inkscape:cy="136.02001"
     inkscape:document-units="px"
     inkscape:current-layer="layer1"
     showgrid="false"
     fit-margin-top="0"
     fit-margin-left="0"
     fit-margin-right="0"
     fit-margin-bottom="0"
     inkscape:window-width="1366"
     inkscape:window-height="706"
     inkscape:window-x="-8"
     inkscape:window-y="-8"
     inkscape:window-maximized="1" />
  <metadata
     id="metadata7">
    <rdf:RDF>
      <cc:Work
         rdf:about="">
        <dc:format>image/svg+xml</dc:format>
        <dc:type
           rdf:resource="http://purl.org/dc/dcmitype/StillImage" />
        <dc:title></dc:title>
      </cc:Work>
    </rdf:RDF>
  </metadata>
  <g
     inkscape:label="Ebene 1"
     inkscape:groupmode="layer"
     id="layer1"
     transform="translate(-214.78133,-269.65406)">
    <path
       style="fill:#ffffff;stroke:none"
       d="m 373.9375,269.65625 c -46.09148,0.16326 -91.58293,9.43005 -128.125,25.9375 -15.48509,8.03846 -17.8098,10.53887 -25.5625,21.8125 -2.70279,8.81897 -10.8223,41.41029 0,49.28125 3.35908,2.31404 8.06207,1.8929 12.125,1.53125 24.6534,-2.19448 45.43286,-9.09225 58.0625,-15.5625 9.59153,-6.37878 12.36325,-12.65096 6.15625,-22.125 -1.37398,-2.68079 -3.96631,-4.55047 -5.84375,-6.90625 -1.65371,-2.07504 -3.74988,-4.47325 -3.65625,-7.125 0.1239,-3.50904 2.89467,-5.18841 5.78125,-7.1875 1.44879,-1.00335 3.02865,-1.87441 4.65625,-2.59375 -2.28736,23.02601 13.15421,35.7665 27.0625,46.1875 -11.82521,12.32833 -18.91067,19.74272 -18.40625,43.15625 0.0674,3.12634 0.27139,9.32123 -2.625,10.5 -8.50621,3.46183 -20.02616,4.2612 -25.125,10.875 -4.70391,6.10153 -24.69551,41.84484 -26.65625,49.53125 -1.47021,5.76344 -1.79761,44.93334 -2.25,54.40625 -0.32301,6.76368 15.50879,15.88528 25.53125,15.78125 32.51425,-0.3375 96.52081,-0.28246 97.9375,-0.28125 l 0.8125,0 c 1.41786,-10e-4 65.42355,-0.0562 97.9375,0.28125 10.02246,0.10403 25.82301,-9.01757 25.5,-15.78125 -0.45239,-9.47291 -0.77979,-48.64281 -2.25,-54.40625 -1.96074,-7.68641 -21.92109,-43.42972 -26.625,-49.53125 -5.09884,-6.6138 -16.65004,-7.41317 -25.15625,-10.875 -2.89639,-1.17877 -2.6924,-7.37366 -2.625,-10.5 0.50442,-23.41353 -6.54979,-30.82792 -18.375,-43.15625 14.27355,-10.69467 30.13232,-23.84082 26.8125,-48.03125 0.30811,0.0613 0.62215,0.11568 0.9375,0.1875 5.39938,1.22969 9.9586,3.73062 11.84375,8.9375 1.05168,2.90479 0.74919,4.25049 -0.71875,6.96875 -6.63068,6.6902 -13.25849,18.91686 -9,26.53125 3.49767,5.75662 11.85855,8.28795 18.1875,10.59375 13.19745,4.80818 25.81875,8.72272 39.59375,11.46875 5.23035,1.04266 12.30146,2.18305 17.03125,-0.28125 4.49502,-2.34198 6.33094,-8.33497 7.4375,-13.28125 2.60677,-26.84237 -0.48212,-40.68628 -21.21875,-53.59375 -40.37152,-22.77485 -90.12237,-32.9238 -139.1875,-32.75 z M 321.59375,303.75 c 7.40629,0.59724 14.81991,1.94796 22.21875,2.375 24.52786,1.41567 51.8399,1.74553 80.875,-0.25 -0.65396,4.48401 0.63032,10.55492 -1.34375,15.5 -1.93275,4.84159 -5.32656,7.04595 -10.53125,6.75 -10.09657,-0.57412 -38.06873,-1.34511 -39.125,-1.375 l 0,-0.0312 c 0,0 -0.30694,-1.6e-4 -0.3125,0 -0.005,-1.3e-4 -0.28125,0 -0.28125,0 l 0,0.0312 c -1.05627,0.0299 -29.02843,0.80088 -39.125,1.375 -5.20469,0.29595 -8.56725,-1.90841 -10.5,-6.75 -2.30534,-5.77492 -0.1838,-13.10788 -1.875,-17.625 z M 373.5,339.375 c 34.5178,0 62.5,22.83348 62.5,51 0,28.16652 -27.9822,51 -62.5,51 -34.5178,0 -62.5,-22.83348 -62.5,-51 0,-28.16652 27.9822,-51 62.5,-51 z m 0.125,1.4375 c -33.56063,0 -60.75,22.20828 -60.75,49.59375 0,27.38547 27.18937,49.59375 60.75,49.59375 33.56063,0 60.78125,-22.20828 60.78125,-49.59375 0,-27.38547 -27.22062,-49.59375 -60.78125,-49.59375 z m -1.25,2.25 c 0.29714,-0.0193 0.60115,0 0.90625,0 4.88155,0 8.84375,2.53206 8.84375,5.65625 0,3.12419 -3.9622,5.65625 -8.84375,5.65625 -4.88155,0 -8.84375,-2.53206 -8.84375,-5.65625 0,-2.92893 3.48046,-5.36656 7.9375,-5.65625 z M 395,346.46875 c 4.88155,0 8.8125,2.53206 8.8125,5.65625 0,3.12419 -3.93095,5.65625 -8.8125,5.65625 -4.88155,0 -8.84375,-2.53206 -8.84375,-5.65625 0,-3.12419 3.9622,-5.65625 8.84375,-5.65625 z m -42.9375,0.65625 c 4.88155,0 8.84375,2.53206 8.84375,5.65625 0,3.12419 -3.9622,5.65625 -8.84375,5.65625 -4.88155,0 -8.84375,-2.53206 -8.84375,-5.65625 0,-3.12419 3.9622,-5.65625 8.84375,-5.65625 z m -17.28125,11.0625 c 4.88155,0 8.84375,2.53206 8.84375,5.65625 0,3.12419 -3.9622,5.65625 -8.84375,5.65625 -4.88155,0 -8.84375,-2.53206 -8.84375,-5.65625 0,-3.12419 3.9622,-5.65625 8.84375,-5.65625 z m 37.5625,9.9375 c 0.42397,-0.0174 0.85193,0 1.28125,0 13.73808,0 24.875,9.01027 24.875,20.125 0,11.11473 -11.13692,20.125 -24.875,20.125 -13.73808,0 -24.875,-9.01027 -24.875,-20.125 0,-10.7674 10.45055,-19.58599 23.59375,-20.125 z M 324.53125,375 c 4.88155,0 8.8125,2.53206 8.8125,5.65625 0,3.12419 -3.93095,5.65625 -8.8125,5.65625 -4.88155,0 -8.84375,-2.53206 -8.84375,-5.65625 0,-3.12419 3.9622,-5.65625 8.84375,-5.65625 z m -0.34375,17.4375 c 4.88155,0 8.84375,2.53206 8.84375,5.65625 0,3.12419 -3.9622,5.65625 -8.84375,5.65625 -4.88155,0 -8.84375,-2.53206 -8.84375,-5.65625 0,-3.12419 3.9622,-5.65625 8.84375,-5.65625 z m 9.5625,16.28125 c 4.88155,0 8.84375,2.53206 8.84375,5.65625 0,3.12419 -3.9622,5.65625 -8.84375,5.65625 -4.88155,0 -8.84375,-2.53206 -8.84375,-5.65625 0,-3.12419 3.9622,-5.65625 8.84375,-5.65625 z m 61.9375,13.125 c 4.88155,0 8.84375,2.53206 8.84375,5.65625 0,3.12419 -3.9622,5.65625 -8.84375,5.65625 -4.88155,0 -8.84375,-2.53206 -8.84375,-5.65625 0,-3.12419 3.9622,-5.65625 8.84375,-5.65625 z m -44.0625,0.25 c 4.88155,0 8.84375,2.53206 8.84375,5.65625 0,3.12419 -3.9622,5.65625 -8.84375,5.65625 -4.88155,0 -8.8125,-2.53206 -8.8125,-5.65625 0,-3.12419 3.93095,-5.65625 8.8125,-5.65625 z M 372.90625,427 c 4.88155,0 8.8125,2.53206 8.8125,5.65625 0,3.12419 -3.93095,5.65625 -8.8125,5.65625 -4.88155,0 -8.84375,-2.53206 -8.84375,-5.65625 0,-3.12419 3.9622,-5.65625 8.84375,-5.65625 z"
       id="path2998"
       inkscape:connector-curvature="0" />
  </g>
</svg>
